<svg xmlns="http://www.w3.org/2000/svg" viewBox="0 0 586.68 586.68"><defs><style>.cls-1{fill:#231f20;}.cls-2{fill:#fff;}</style></defs><title>logo-back</title><g id="Layer_2" data-name="Layer 2"><g id="Layer_2-2" data-name="Layer 2"><rect class="cls-1" x="109.09" y="109.09" width="368.5" height="368.5"/><path class="cls-2" d="M487.59,487.59H99.09V99.09h388.5Zm-368.5-20h348.5V119.09H119.09Z"/><polygon class="cls-1" points="293.34 20.84 389.69 197 565.84 293.34 389.69 389.69 293.34 565.84 197 389.69 20.84 293.34 197 197 293.34 20.84"/><path class="cls-2" d="M293.34,586.68,189.63,397.05,0,293.34,189.63,189.63,293.34,0,397.05,189.63,586.68,293.34,397.05,397.05ZM41.68,293.34l162.69,89,89,162.68,89-162.68,162.68-89-162.68-89-89-162.69-89,162.69Z"/><circle class="cls-1" cx="293.34" cy="293.34" r="200"/><path class="cls-2" d="M293.34,503.34c-115.79,0-210-94.2-210-210s94.21-210,210-210,210,94.21,210,210S409.13,503.34,293.34,503.34Zm0-400c-104.77,0-190,85.24-190,190s85.23,190,190,190,190-85.23,190-190S398.11,103.34,293.34,103.34Z"/></g></g></svg>