<svg xmlns="http://www.w3.org/2000/svg" viewBox="0 0 311.39 211.84"><defs><style>.cls-1{fill:#fff;}</style></defs><title>logo-text</title><g id="Layer_2" data-name="Layer 2"><g id="Layer_2-2" data-name="Layer 2"><path class="cls-1" d="M290.88,102.22v-.33C297.94,96.51,310,81.38,310,56.16,310,21.52,288.18,0,246.83,0H152V19.17l10.76,1.68c4.72.94,8.11,6,9.71,14.46H116.76c1.71-8.66,5.35-13.85,10.34-14.8l10.77-1.68V0H56.49V18.83l10.76,1.68C74,21.86,78,31.61,78,47.75v81.37C78,175.53,67.92,187,52.79,187c-12.78,0-22.86-9.08-22.86-16.14,0-6,3.7-11.1,8.07-15.8,5-5.39,6.72-11.1,6.72-17.83,0-10.08-9.75-16.81-20.85-16.81C9.42,120.38,0,132.15,0,154.68,0,188,17.49,211.84,58.85,211.84c5.62,0,9.54,0,14.69-.09h8.22v.09H255.57c33.62,0,55.82-21.52,55.82-63.55C311.39,129.46,305,114,290.88,102.22ZM173.52,164.09a79.21,79.21,0,0,1-.86,12.68c-1.63,6.28-4.73,11.35-10.11,14.3l-6.24,2.23a32.08,32.08,0,0,1-6.46.61c-14.29,0-18.49-8.13-18.49-19.34V128.62H159.1v-19.9H131.36V72.3c0-12.89,4.2-19.62,18.49-19.62,11.22,0,21,7.94,23.67,23.29Zm68.26,24.21H223c-7.06,0-11.43-8.74-11.43-24.21V112h29.25c17.82,0,28.92,14.8,28.92,36C269.69,166.78,259.94,188.3,241.78,188.3Zm0-99.53H211.52V49.43c0-16.48,4.37-25.55,11.43-25.55h23.88c11.09,0,22.86,14.12,22.86,35.3C269.69,77.34,260.28,88.77,241.78,88.77Z"/></g></g></svg>